<?xml version="1.0" encoding="UTF-8"?>
<svg width="140px" height="35px" viewBox="0 0 140 35" version="1.1" xmlns="http://www.w3.org/2000/svg" xmlns:xlink="http://www.w3.org/1999/xlink">
    <!-- Generator: Sketch 39.1 (31720) - http://www.bohemiancoding.com/sketch -->
    <title>logo</title>
    <desc>Created with Sketch.</desc>
    <defs>
        <polygon id="path-1" points="7.2965202 0.126364436 0.132542308 0.126364436 0.132542308 7.80904258 7.2965202 7.80904258 7.2965202 0.126364436"></polygon>
        <polygon id="path-3" points="21.1557267 0.0146085367 0.158643677 0.0146085367 0.158643677 15.2415634 21.1557267 15.2415634 21.1557267 0.0146085367"></polygon>
    </defs>
    <g id="银联官网-首页" stroke="none" stroke-width="1" fill="none" fill-rule="evenodd">
        <g id="银联官网-首页-01" transform="translate(-120.000000, -22.000000)">
            <g id="nav">
                <g id="logo" transform="translate(120.000000, 22.000000)">
                    <g id="三色logo">
                        <path d="M25.2057754,3.60085743 L19.4732804,28.3991426 C19.0135629,30.3878412 17.3179959,32 15.6877562,32 L2.2366429,32 C0.605673085,32 -0.343951645,30.3884343 0.115902943,28.3991426 L5.84839796,3.60085743 C6.30811544,1.61215879 8.00368246,0 9.63392217,0 L23.0850354,0 C24.7160052,0 25.66563,1.61156566 25.2057754,3.60085743 Z" id="Rectangle-Copy-2" fill="#ED171F"></path>
                        <path d="M36.9750061,3.60085743 L31.2425111,28.3991426 C30.7827937,30.3878412 29.0872266,32 27.4569869,32 L14.0058737,32 C12.3749039,32 11.4252791,30.3884343 11.8851337,28.3991426 L17.6176287,3.60085743 C18.0773462,1.61215879 19.7729132,0 21.4031529,0 L34.8542662,0 C36.485236,0 37.4348607,1.61156566 36.9750061,3.60085743 Z" id="Rectangle-Copy" fill="#082F67"></path>
                        <path d="M50.8840971,3.60085743 L45.151602,28.3991426 C44.6918846,30.3878412 42.9963175,32 41.3660778,32 L27.9149646,32 C26.2839948,32 25.33437,30.3884343 25.7942246,28.3991426 L31.5267196,3.60085743 C31.9864371,1.61215879 33.6820041,0 35.3122438,0 L48.7633571,0 C50.3943269,0 51.3439516,1.61156566 50.8840971,3.60085743 Z" id="Rectangle" fill="#006A65"></path>
                        <g id="Page-1" transform="translate(5.706294, 8.223464)">
                            <path d="M31.9701701,10.791821 L30.4577973,15.9144265 L30.8728891,15.9118172 L30.5582618,16.9702592 L30.1429837,16.9730548 L30.0484837,17.3007078 L28.577676,17.3100267 L28.6762766,16.9821874 L25.6875044,17.0008252 L25.9825607,16.0204757 L26.2843269,16.0184256 L27.8186938,10.817914 L28.1251198,9.7676727 L29.6261228,9.75835379 L29.4717914,10.2882271 C29.4717914,10.2882271 29.8704808,9.99822256 30.2486672,9.89757832 C30.6255488,9.79544305 32.7999808,9.74549369 32.7999808,9.74549369 L32.4842352,10.7884662 L31.9701701,10.791821 Z M29.3273388,10.8084087 L28.9390873,12.1171566 C28.9390873,12.1171566 29.3817648,11.9138179 29.6246317,11.8465354 C29.870108,11.7809303 30.2393476,11.7540918 30.2393476,11.7540918 L30.5194926,10.8009536 L29.3273388,10.8084087 Z M28.7459867,12.767803 L28.3441287,14.1289231 C28.3441287,14.1289231 28.7970577,13.8940866 29.0395518,13.819908 C29.2839098,13.7615717 29.6566908,13.7132997 29.6566908,13.7132997 L29.9418683,12.7605342 L28.7459867,12.767803 Z M27.8090015,15.9453653 L29.004324,15.9379102 L29.3429956,14.7868383 L28.1489778,14.7942934 L27.8090015,15.9453653 Z" id="Fill-1" fill="#FFFFFF"></path>
                            <path d="M32.6268985,9.74653741 L34.227434,9.73647298 L34.2499873,10.3328833 C34.240295,10.4333412 34.3275257,10.4808676 34.5129843,10.4797493 L34.8382358,10.4776992 L34.5463482,11.46364 L33.6826145,11.469045 C32.9338837,11.5294315 32.6475879,11.2090473 32.6630583,10.8471008 L32.6268985,9.74653741 Z" id="Fill-3" fill="#FFFFFF"></path>
                            <path d="M32.866168,14.4180144 L31.3414935,14.4275197 L31.5964757,13.5481872 L33.3412775,13.5371909 L33.5850763,12.7353918 L31.863387,12.7460154 L32.1517331,11.7556015 L36.945884,11.7255946 L36.6517598,12.7160085 L35.0447006,12.7260729 L34.7977331,13.5280584 L36.4096385,13.517994 L36.1490645,14.3975128 L34.4050083,14.4083227 L34.0991414,14.7795882 L34.8055615,14.7753015 L34.9843101,15.8799652 C35.0036947,15.9888101 35.0068633,16.0596338 35.0419047,16.1067875 C35.0773189,16.1481635 35.2896178,16.1649375 35.4133811,16.164192 L35.6269846,16.1628873 L35.3075112,17.2412717 L34.7636237,17.2448129 C34.6782568,17.2451857 34.5554254,17.2386625 34.3835734,17.2308346 C34.2193633,17.2177881 34.1030556,17.123108 33.9936444,17.0716676 C33.8931799,17.0219046 33.7423899,16.9022498 33.7064166,16.696861 L33.529532,15.5944338 L32.7433367,16.6869829 C32.4945053,17.0306644 32.1552746,17.2953214 31.5808189,17.2988626 L30.4703041,17.3057586 L30.7541769,16.3442334 L31.1789609,16.3416241 C31.300674,16.3408785 31.4102716,16.2922338 31.488742,16.2497396 C31.5703811,16.2152596 31.6417686,16.17407 31.7230349,16.0525514 L32.866168,14.4180144 Z" id="Fill-5" fill="#FFFFFF"></path>
                            <path d="M16.137245,12.1219465 L20.1783781,12.0965991 L19.8866769,13.0627838 L18.2699254,13.0730346 L18.0237036,13.8955217 L19.6764284,13.8852709 L19.3813722,14.8827671 L17.7295793,14.8930179 L17.3377864,16.2321455 C17.289884,16.3806889 17.7292065,16.3983949 17.8885704,16.397463 L18.715026,16.277249 L18.3912657,17.38154 L16.5268012,17.3930954 C16.3793663,17.3940273 16.2652953,17.3735257 16.1025763,17.3384866 C15.9448899,17.3008382 15.8762982,17.2305736 15.8049107,17.1235925 C15.7370645,17.014934 15.633245,16.926218 15.7022095,16.693618 L16.2254077,14.9194837 L15.3081799,14.9252614 L15.6058456,13.9108047 L16.5292243,13.9048406 L16.7685497,13.0823535 L15.8503899,13.0881312 L16.137245,12.1219465 Z" id="Fill-7" fill="#FFFFFF"></path>
                            <path d="M18.8471956,10.3726564 L20.5053257,10.3622192 L20.2082192,11.3720165 L17.9443198,11.3863676 L17.6990299,11.5992115 C17.5961423,11.7026514 17.558305,11.6599708 17.4222399,11.7358267 C17.2932577,11.8010591 17.0256009,11.9304056 16.676305,11.9326421 L15.9503139,11.9373016 L16.2384737,10.9658983 L16.4571098,10.9644073 C16.6421956,10.963289 16.7670772,10.9467013 16.829518,10.9047662 C16.9014648,10.85929 16.9814263,10.7564092 17.0727577,10.5890415 L17.4844944,9.82992302 L19.1334914,9.81948584 L18.8471956,10.3726564 Z" id="Fill-9" fill="#FFFFFF"></path>
                            <path d="M21.213032,9.81806937 L22.6251266,9.80930959 L22.424384,10.5209017 C22.424384,10.5209017 22.8676207,10.1628691 23.1796385,10.0338954 C23.4894195,9.91517242 24.1924846,9.80614116 24.1924846,9.80614116 L26.4767006,9.78023459 L25.7154817,12.3764833 C25.5864994,12.8219272 25.4366414,13.1102543 25.3421414,13.2418373 C25.2552834,13.3765888 25.1559373,13.488043 24.957245,13.598938 C24.7637716,13.7033098 24.5896828,13.76351 24.4278959,13.7806568 C24.2765467,13.7927714 24.0452361,13.8004129 23.724458,13.8056315 L21.5246769,13.8194235 L20.9159254,15.8749889 C20.8592627,16.0773956 20.8305586,16.1733804 20.8704462,16.228362 C20.9032509,16.2779386 20.9783663,16.3321747 21.0812538,16.3314292 L22.0508574,16.2341397 L21.7276562,17.3606097 L20.6404402,17.3675057 C20.2946858,17.3697423 20.0413811,17.363219 19.8654284,17.3509181 C19.6980497,17.3391762 19.5228426,17.3531546 19.4065349,17.2635067 C19.3036473,17.174977 19.1489432,17.0592361 19.1517391,16.9390222 C19.1625497,16.8268225 19.2067243,16.642308 19.2760615,16.3888337 L21.213032,9.81806937 Z M24.2278988,12.4180456 L21.9129284,12.4323967 L21.7735083,12.9009516 L23.7773929,12.8884642 C24.0131769,12.8577118 24.062384,12.8910735 24.0817686,12.8791453 L24.2278988,12.4180456 Z M22.0379964,12.0098773 C22.0379964,12.0098773 22.4868249,11.5949994 23.2614639,11.4552157 C23.436671,11.4205493 24.5389846,11.4240905 24.5389846,11.4240905 L24.7024491,10.8699881 L22.3679077,10.8847119 L22.0379964,12.0098773 Z" id="Fill-11" fill="#FFFFFF"></path>
                            <path d="M25.3561207,13.9769876 L25.2301207,14.6002364 C25.1743899,14.7944425 25.1268604,14.9431723 24.981103,15.0695368 C24.8288219,15.1994424 24.6463456,15.3382942 24.2226799,15.3407171 L23.4405852,15.3778063 L23.4387213,16.0821297 C23.4294018,16.2824862 23.4830822,16.2617983 23.5143959,16.2931098 C23.5520467,16.3274034 23.5837331,16.3432455 23.6189609,16.3544282 L23.8659284,16.3417545 L24.6137272,16.2929234 L24.3130793,17.3230359 L23.452887,17.3284408 C22.8515911,17.3323548 22.4049994,17.322104 22.2575645,17.2065495 C22.1132982,17.116156 22.0926089,16.999856 22.0957775,16.8041589 L22.133242,14.0593668 L23.503026,14.0507934 L23.4884876,14.6110463 L23.8193308,14.6091826 C23.9319107,14.608437 24.0066533,14.5963225 24.054742,14.5670611 C24.094816,14.5346313 24.1255704,14.4908324 24.1475645,14.4224316 L24.2778515,13.9836972 L25.3561207,13.9769876 Z" id="Fill-13" fill="#FFFFFF"></path>
                            <path d="M5.70246923,0.339991157 C5.65493964,0.561594865 4.80052544,4.62706307 4.79791598,4.62892685 C4.61357574,5.4510412 4.48012012,6.04036914 4.01507574,6.41927607 C3.74984201,6.63920238 3.44006095,6.74879277 3.08125917,6.75102931 C2.50456686,6.75475688 2.16421775,6.46978457 2.10252249,5.92500102 L2.09189822,5.73825004 C2.09189822,5.73825004 2.26002249,4.63638198 2.2617,4.6319089 C2.2617,4.6319089 3.16233905,0.925591537 3.32431243,0.437094211 C3.33046331,0.409696612 3.33400473,0.39627738 3.33791893,0.382112635 C1.53962308,0.409696612 1.22052249,0.395345489 1.19890118,0.368134268 C1.18939527,0.404850779 1.14279763,0.63558702 1.14279763,0.63558702 L0.226315385,4.80840908 L0.146167456,5.16439149 L3.72781064e-05,6.32105475 C0.00208757396,6.66268603 0.0697473373,6.94318526 0.205626036,7.17951285 C0.64103432,7.92912607 1.86692485,8.03275236 2.55936568,8.02846566 C3.45292189,8.02287431 4.28832426,7.82624529 4.85178284,7.47883628 C5.83033314,6.89137211 6.08363787,5.97979622 6.30730651,5.17352402 L6.41112604,4.76069626 C6.41112604,4.76069626 7.33841893,0.911054035 7.49815562,0.41100126 C7.50206982,0.383417283 7.5063568,0.370184429 7.51213491,0.355833306 C6.21056982,0.378198692 5.82604615,0.366456864 5.70246923,0.339991157" id="Fill-15" fill="#FFFFFF"></path>
                            <path d="M11.0121577,7.93462422 C10.3739565,7.92921926 10.1502879,7.93071028 9.4054713,7.97264538 L9.37564882,7.91822294 C9.43976716,7.63474166 9.50742692,7.35386968 9.56930858,7.06591532 L9.65803047,6.67843499 C9.79185888,6.0732649 9.92363698,5.37024624 9.93836183,5.1583342 C9.94954527,5.02768306 9.99148314,4.70673976 9.62354822,4.7089763 C9.46903047,4.70990819 9.30798905,4.78613688 9.14545651,4.86236558 C9.05766657,5.18461353 8.88134112,6.08519311 8.79858373,6.49895276 C8.61983521,7.36617064 8.60790621,7.46420559 8.52813107,7.89268912 L8.47482337,7.95046637 C7.81686479,7.94524778 7.5904003,7.94655243 6.83365473,7.98886029 L6.79768136,7.92754185 C6.92163107,7.41071504 7.04483521,6.89090617 7.16132929,6.37668865 C7.47036479,4.98015661 7.5411932,4.44562387 7.6258145,3.73626835 L7.68434112,3.69265584 C8.42151568,3.58492923 8.60045059,3.56368211 9.39708373,3.39500982 L9.46492988,3.46937473 L9.34657189,3.91500506 C9.48151864,3.83374416 9.60919615,3.75155136 9.74787071,3.67979574 C10.1223293,3.49248563 10.540776,3.43545389 10.7713411,3.43396287 C11.1200778,3.43172633 11.5021784,3.52733836 11.6645246,3.92954257 C11.8192287,4.28850702 11.7221192,4.73413736 11.5277139,5.61067415 L11.4285541,6.0561181 C11.2298618,7.03068984 11.1968707,7.20886742 11.0869003,7.8766606 L11.0121577,7.93462422 Z" id="Fill-17" fill="#FFFFFF"></path>
                            <path d="M13.6022405,7.91842796 C13.2184624,7.91861433 12.9707494,7.91283661 12.7299328,7.92159639 C12.4896754,7.92551033 12.2565009,7.93874318 11.8991902,7.95700825 L11.8773825,7.92700136 L11.8544565,7.89587619 C11.9485837,7.52554266 12.0024506,7.39470515 12.0497938,7.26461315 C12.097137,7.13470752 12.1433618,7.00181985 12.2255601,6.627386 C12.3347849,6.13870229 12.4024447,5.79688463 12.4477376,5.49774758 C12.498063,5.20811582 12.5258352,4.96228294 12.5605038,4.67619237 L12.5903263,4.65382698 L12.6216399,4.62568387 C13.0022494,4.56902489 13.2453027,4.53324027 13.4917109,4.49242344 C13.7433382,4.45440228 13.9940334,4.40519843 14.3901133,4.32710596 L14.4053973,4.3617723 L14.4163944,4.39587952 C14.3442612,4.6998624 14.2723145,5.00067686 14.2018589,5.30857368 C14.1319624,5.61516586 14.0613204,5.91653945 13.9951518,6.2199632 C13.8553589,6.86389996 13.8001873,7.1032096 13.7668234,7.27430481 C13.7362553,7.43869041 13.727495,7.5277792 13.6717642,7.86046433 L13.6370956,7.89140311 L13.6022405,7.91842796 Z" id="Fill-19" fill="#FFFFFF"></path>
                            <path d="M19.316266,5.68735015 C19.5334109,4.70513691 19.359695,4.24832388 19.1380766,3.96950206 C18.8022009,3.54791451 18.2156299,3.4144677 17.6070648,3.41819527 C17.240621,3.42061819 16.3703636,3.46292604 15.6926476,4.09605287 C15.2085914,4.55081574 14.9851092,5.16754128 14.8516536,5.75575096 C14.7187571,6.35644797 14.5659169,7.44005097 15.5619879,7.83573194 C15.8721417,7.96340102 16.3112778,7.9969491 16.5964553,7.9952717 C17.3244967,7.99061224 18.0700589,7.78578257 18.6255027,7.18676296 C19.0577423,6.70180682 19.2508429,5.98201412 19.316266,5.68735015 M17.6484435,5.62752274 C17.6147068,5.79190833 17.4751003,6.40770199 17.2803222,6.67105442 C17.1448163,6.8637695 16.9826565,6.98137416 16.8037216,6.98249243 C16.7524642,6.98286518 16.4380234,6.98472897 16.429263,6.51617411 C16.4242305,6.28711527 16.4698962,6.04687374 16.5265589,5.79153558 C16.6892778,5.04695457 16.8848015,4.42370579 17.3902926,4.42053736 C17.7876772,4.41792806 17.8163814,4.88014606 17.6484435,5.62752274" id="Fill-21" fill="#FFFFFF"></path>
                            <path d="M34.9193716,7.85062356 C34.150697,7.84875978 33.9294515,7.8502508 33.2168805,7.88435802 L33.1702828,7.82788542 C33.3609604,7.0944871 33.5499604,6.3644436 33.7162207,5.62470843 C33.9341112,4.66336955 33.981268,4.25501486 34.0526556,3.6940164 L34.1093183,3.64555806 C34.8725876,3.53130821 35.0848864,3.50018305 35.8796556,3.34735291 L35.9053775,3.41258528 C35.7644663,4.01607797 35.6213183,4.61863877 35.4863716,5.22324973 C35.2006349,6.49080804 35.0973746,7.13399929 34.9898272,7.79620112 L34.9193716,7.85062356 Z" id="Fill-23" fill="#FFFFFF"></path>
                            <path d="M35.2719479,5.67415457 C35.4889065,4.6973463 34.5949775,5.59158902 34.4497793,5.27157761 C34.2253651,4.77059294 34.3578888,3.75129043 33.4688059,3.41730065 C33.1269657,3.28664952 32.3280959,3.4631497 31.6479568,4.09161707 C31.1678148,4.54432978 30.9404183,5.15397295 30.8091994,5.74311451 C30.675371,6.33449262 30.5236491,7.41585908 31.5141284,7.79681617 C31.8281964,7.92690817 32.1146787,7.96418381 32.3996698,7.95151009 C33.3931314,7.89000528 34.1416757,6.38574663 34.6980515,5.78728615 C35.1276817,5.3144446 35.2074568,5.96154979 35.2719479,5.67415457 M33.7495101,5.6105996 C33.7131639,5.76846195 33.5724391,6.39152436 33.3765426,6.65021733 C33.2481195,6.83585004 32.9368473,6.95401384 32.7588444,6.95513211 C32.7090781,6.95531848 32.3961284,6.95736864 32.3821491,6.49496427 C32.3789805,6.26683732 32.4255781,6.02752768 32.4822408,5.76864833 C32.6458917,5.0414005 32.8401107,4.41982912 33.3465337,4.41647431 C33.7433592,4.4140514 33.9170751,4.86434119 33.7495101,5.6105996" id="Fill-25" fill="#FFFFFF"></path>
                            <path d="M23.6854278,7.85526438 C23.0457355,7.84985941 22.8282178,7.85116406 22.0781822,7.89328553 L22.0505964,7.83867671 C22.1128509,7.55538181 22.1827473,7.27450983 22.2487296,6.98655547 L22.3342828,6.59907515 C22.469416,5.99371867 22.5998893,5.29070001 22.6133095,5.07878797 C22.6254249,4.94832321 22.6666172,4.62719353 22.3020373,4.62943007 C22.1449101,4.63054834 21.9851734,4.70677704 21.8215225,4.78300573 C21.7350373,5.10525368 21.5585254,6.00564688 21.4716675,6.41959292 C21.2960876,7.28681079 21.2841586,7.38465936 21.2043834,7.81332928 L21.1505166,7.87110653 C20.4940491,7.86588794 20.2666527,7.86719258 19.5121438,7.90931406 L19.4780343,7.848182 C19.6003065,7.33116881 19.7210876,6.81154632 19.8385136,6.2973288 C20.1466172,4.90061039 20.217632,4.36626402 20.3009485,3.6569085 L20.3598479,3.61329599 C21.0973953,3.505383 21.2761438,3.48432226 22.0725905,3.31564997 L22.137268,3.3898285 L22.0233834,3.83564522 C22.1536704,3.75419793 22.2884308,3.67200513 22.4228183,3.6004359 C22.7946675,3.4129394 23.2170284,3.35590767 23.4431201,3.35460302 C23.7929751,3.35236648 24.1767533,3.44779213 24.3430136,3.84999634 C24.4947355,4.20914718 24.3974396,4.65459113 24.2004249,5.5313143 L24.1040609,5.97675826 C23.9008953,6.95132999 23.8705136,7.12950757 23.7633391,7.79711437 L23.6854278,7.85526438 Z" id="Fill-27" fill="#FFFFFF"></path>
                            <g id="Group-31" transform="translate(24.603550, 0.059995)">
                                <mask id="mask-2" fill="white">
                                    <use xlink:href="#path-1"></use>
                                </mask>
                                <g id="Clip-30"></g>
                                <path d="M5.26480562,2.5039728 C5.1550216,3.0107352 4.82977012,3.44126889 4.40685,3.65131715 C4.05699497,3.82930836 3.63034704,3.84626877 3.18971982,3.84887807 L2.90435592,3.85074185 L2.92560444,3.73667838 C2.92560444,3.73667838 3.43761923,1.4486993 3.43612811,1.45559529 L3.4480571,1.33929528 L3.45868136,1.24796995 L3.66799793,1.26940345 C3.66799793,1.26940345 4.74980858,1.35588294 4.77813994,1.35849224 C5.20683817,1.51915027 5.38465473,1.94744743 5.26480562,2.5039728 M4.55931746,0.126345798 C4.55540325,0.126345798 4.02922278,0.136223844 4.02922278,0.136223844 C2.65142396,0.161012148 2.09765769,0.157843718 1.87082041,0.132123523 C1.85013107,0.232395008 1.81490325,0.412249994 1.81490325,0.412249994 C1.81490325,0.412249994 1.33792988,2.70488853 1.33792988,2.70656593 C1.33792988,2.70656593 0.187341124,7.58091563 0.132542308,7.80904258 C1.33457485,7.78816822 1.82888254,7.78518616 2.03465769,7.80475588 C2.08106893,7.5760698 2.35263994,6.21550876 2.35487663,6.21550876 C2.35487663,6.21550876 2.58730562,5.21521683 2.60091213,5.1786867 C2.60091213,5.1786867 2.67528195,5.07636505 2.7511429,5.03461633 L2.86074053,5.03387082 C3.89763107,5.02734758 5.07189142,5.01989245 5.98408669,4.3373754 C6.60458077,3.87031157 7.03011036,3.18332143 7.21556893,2.35300644 C7.26309852,2.14743126 7.29813994,1.90290303 7.29646243,1.66135685 C7.29459852,1.34283647 7.22898905,1.02804365 7.04148018,0.78314266 C6.56916657,0.129886984 5.63889142,0.126345798 4.55931746,0.126345798" id="Fill-29" fill="#FFFFFF" mask="url(#mask-2)"></path>
                            </g>
                            <path d="M41.1907607,3.3074866 L41.1292518,3.23927217 C40.3443612,3.40086209 40.2017725,3.43030985 39.4787636,3.52964945 L39.4248967,3.58276724 C39.4217281,3.59115426 39.4206098,3.60606452 39.4187459,3.61668808 L39.4152044,3.60606452 C38.8826867,4.85368035 38.8994618,4.58399106 38.4657311,5.56508603 C38.462376,5.51979613 38.4612577,5.48997561 38.4597666,5.44412657 L38.3367488,3.32537891 L38.2683435,3.25716448 C37.4461749,3.41894078 37.4245536,3.44764303 36.6640802,3.547169 L36.6033169,3.60047317 C36.5980979,3.62768439 36.5969796,3.65489561 36.5932518,3.68471613 L36.5986571,3.69627158 C36.695953,4.18290512 36.6735861,4.07406024 36.773305,4.83970199 C36.8204618,5.21488135 36.880666,5.59546568 36.9267044,5.96635835 C37.006666,6.58923438 37.0508405,6.89601293 37.1472044,7.84430534 C36.6402222,8.69735847 36.5177636,9.01942004 36.0327754,9.7686605 L36.0596157,9.8363158 C36.8042459,9.80388599 36.9755388,9.80295409 37.5261364,9.79959929 L37.6471038,9.66298405 C38.0575358,8.76370912 41.1907607,3.3074866 41.1907607,3.3074866" id="Fill-32" fill="#FFFFFF"></path>
                            <path d="M14.2786331,4.0030315 C14.6978254,3.70575823 14.7477781,3.29964008 14.3908402,3.09182836 C14.028497,2.88215286 13.4007337,2.95204469 12.9778136,3.24875883 C12.5534024,3.54155902 12.5082959,3.94954095 12.8670976,4.15958921 C13.2247811,4.3642325 13.8555266,4.29937288 14.2786331,4.0030315" id="Fill-34" fill="#FFFFFF"></path>
                            <path d="M37.5920068,9.73744215 L36.9784092,10.8020346 C36.7847494,11.1652857 36.4237109,11.4396345 35.8453411,11.4454122 L34.8585896,11.4346023 L35.1396666,10.478482 L35.3310896,10.4771773 C35.4324861,10.4766182 35.5066695,10.4689767 35.5640778,10.4408336 C35.611421,10.424805 35.6477672,10.385852 35.6887731,10.3286339 L36.0483204,9.74713382 L37.5920068,9.73744215 Z" id="Fill-36" fill="#FFFFFF"></path>
                        </g>
                    </g>
                    <g id="中国银联" transform="translate(55.000000, 6.000000)">
                        <path d="M5.64346198,8.70074201 L6.70083826,4.2334515 L11.5559541,4.2334515 L10.4990057,8.70074201 L5.64346198,8.70074201 Z M14.1106026,4.23471096 L18.9712813,4.23471096 L18.0076182,8.304853 C18.0076182,8.304853 17.863839,8.67933125 17.45946,8.70242128 L13.0540821,8.70242128 L14.1106026,4.23471096 Z M8.97819825,15.1151515 L11.5349863,15.1151515 L12.6377215,10.4429895 L18.2125892,10.4429895 C19.1240467,10.4429895 19.7436666,9.79227056 19.7436666,9.79227056 C20.3530166,9.22257662 20.4878096,8.54750819 20.4878096,8.54750819 L21.9238901,2.48616618 L14.5252515,2.48616618 L15.1183408,0 L12.5619806,0 L11.9718868,2.49414274 L9.69324307,2.49414274 C8.30765651,2.51723277 6.8514641,3.61631805 6.8514641,3.61631805 L7.11634306,2.49540219 L4.57667159,2.49540219 L2.69556025,10.4429895 L10.0852126,10.4429895 L8.97819825,15.1151515 Z" id="Fill-1" fill="#2E2E2E"></path>
                        <g id="Group-5" transform="translate(21.384778, 0.000000)">
                            <mask id="mask-4" fill="white">
                                <use xlink:href="#path-3"></use>
                            </mask>
                            <g id="Clip-4"></g>
                            <path d="M5.86836177,1.77323416 L18.1979995,1.77323416 L15.556362,13.0154642 C15.556362,13.0154642 15.4519968,13.4611783 14.9840642,13.4920485 L3.10909955,13.4920485 L5.86836177,1.77323416 Z M15.7586765,15.2414976 C16.6004418,15.2486866 17.19712,14.6638453 17.19712,14.6638453 C17.864373,14.0925362 18.0179267,13.3372749 18.0179267,13.3372749 L21.1557267,0.014481673 L8.85987937,0.0161731878 C7.46763033,0.0508492406 6.01678279,1.14864233 6.01678279,1.14864233 L6.28154536,0.0195562174 L3.73486309,0.0195562174 L0.158643677,15.2414976 L15.7586765,15.2414976 Z" id="Fill-3" fill="#2E2E2E" mask="url(#mask-4)"></path>
                        </g>
                        <path d="M26.8330103,10.5349839 L26.4164905,12.3030303 L36.1309733,12.3030303 L36.5466307,10.5272911 L36.0529298,10.5272911 C36.0662963,9.86272451 36.008087,9.24687851 36.008087,9.24687851 L34.1557383,9.24687851 C34.272588,9.84135581 34.2812116,10.5272911 34.2812116,10.5272911 L32.9674065,10.5272911 L33.4149712,8.6130828 L36.995489,8.6130828 L37.410284,6.84247214 L33.8301974,6.84247214 L34.2790557,4.93168279 L37.8578488,4.93168279 L38.2769556,3.16363636 L28.5607481,3.16363636 L28.1429347,4.93894814 L31.7182784,4.93894814 L31.2720072,6.84546376 L27.6975259,6.84546376 L27.2831621,8.60752694 L30.8537627,8.60752694 L30.4005926,10.5349839 L26.8330103,10.5349839 Z" id="Fill-6" fill="#2E2E2E"></path>
                        <path d="M48.2799683,2.8604676 L52.5937303,2.8604676 L53.012685,1.1405426 L49.6355118,1.1405426 C49.8826432,0.778998053 50.2184994,0 50.2184994,0 L47.512606,0 C46.7867929,2.20322682 45.6151912,2.28978216 45.6151912,2.28978216 L44.8114733,2.28978216 L44.3868922,4.04242424 L45.5814325,4.04242424 C47.1343349,4.04242424 48.2799683,2.8604676 48.2799683,2.8604676" id="Fill-8" fill="#2E2E2E"></path>
                        <path d="M44.4197154,13.700535 C44.4197154,13.700535 44.1327532,14.6087738 44.8324151,15.0452554 C44.8324151,15.0452554 45.1237584,15.2671087 45.77479,15.2909091 L49.7239148,15.2909091 L50.1453768,13.5335075 L47.6012712,13.5335075 C47.6012712,13.5335075 47.0755391,13.5377576 47.182876,12.9665489 L47.759429,10.5661126 L50.8573058,10.5661126 L51.2805202,8.80063595 L48.1887769,8.80063595 L48.7789113,6.33262363 L51.8706545,6.33262363 L52.2938689,4.56969697 L44.7461074,4.56969697 L44.322893,6.33262363 L46.1831087,6.33262363 L45.59166,8.79978594 L43.7318825,8.79978594 L43.3086681,10.5678127 L45.1693218,10.5678127 L44.4197154,13.700535 Z" id="Fill-10" fill="#2E2E2E"></path>
                        <path d="M55.5683032,4.8785738 L60.2269392,4.8785738 L59.8957258,6.26183691 L55.2388217,6.26183691 L55.5683032,4.8785738 Z M56.3186207,1.75647128 L60.9772567,1.75647128 L60.6451774,3.14057401 L58.4907747,3.14057401 C57.1044408,3.22285613 55.7194058,4.25138257 55.7194058,4.25138257 L56.3186207,1.75647128 Z M51.0871804,14.6802209 C51.4850694,15.1457866 52.349688,15.1147209 52.349688,15.1147209 L55.3358044,15.1147209 L55.7527437,13.3771409 L54.0689672,13.3771409 C53.5191096,13.3372592 53.6628519,12.8187979 53.6628519,12.8187979 L54.8171198,8.00319516 L60.1749842,8.00319516 C60.9482485,8.00319516 61.4123802,7.61403433 61.4123802,7.61403433 C62.3125014,7.04183779 62.5233523,6.05193356 62.5233523,6.05193356 L63.97463,0 L59.3445693,0 C58.0088916,0.00419806712 56.4688574,1.12760083 56.4688574,1.12760083 L56.7381577,0 L54.1603214,0 L50.9274186,13.4749558 C50.7009812,14.3053335 51.0871804,14.6802209 51.0871804,14.6802209 L51.0871804,14.6802209 Z" id="Fill-12" fill="#2E2E2E"></path>
                        <path d="M60.0356114,8.96694757 L59.8129297,9.88787599 C59.7335238,10.1560835 59.3973435,10.1560835 59.3973435,10.1560835 L58.4707979,10.1560835 L58.4449046,8.96363636 L55.8879493,8.96363636 L55.9729653,13.9598283 C55.9785755,14.5045212 56.1244407,14.7665202 56.1244407,14.7665202 C56.3868253,15.3476364 57.6158901,15.2892764 57.6158901,15.2892764 L60.4615548,15.2892764 L60.877141,13.5749009 L59.0054928,13.5749009 C58.548046,13.5749009 58.5290576,13.2206021 58.5290576,13.2206021 L58.4988488,11.4855316 L59.698568,11.4855316 C60.69632,11.4855316 61.106296,11.1440638 61.106296,11.1440638 C61.560722,10.8626115 61.6841463,10.2628698 61.6841463,10.2628698 L61.9978858,8.96694757 L60.0356114,8.96694757 Z" id="Fill-14" fill="#2E2E2E"></path>
                        <path d="M67.7617414,10.1533082 L70.2377021,10.1533082 L69.6450681,12.6186979 L67.1691074,12.6186979 L67.7617414,10.1533082 Z M68.7691325,5.96050869 L71.2476962,5.96050869 L70.6511576,8.43891163 C70.6511576,8.43891163 69.501465,8.45360406 67.9083814,9.54378231 L68.7691325,5.96050869 Z M69.780862,1.74420125 L72.2581242,1.74420125 L71.6628871,4.22386354 C71.6628871,4.22386354 70.5131945,4.23939554 68.9205448,5.32915401 L69.780862,1.74420125 Z M63.255814,14.3587013 L69.2290095,14.3587013 L69.0459264,15.1151515 L71.6221056,15.1151515 L71.8038872,14.3633189 L72.5557428,14.3633189 L72.9735367,12.6283529 L72.2186442,12.6283529 L74.8330019,1.74713974 L75.5939683,1.74713974 L76.0147992,0 L72.7366567,0 C71.3223178,0.100328303 69.9314066,1.12040268 69.9314066,1.12040268 L70.1995236,0.000419783695 L67.6268152,0.000419783695 L64.5994359,12.6245749 L63.6718725,12.6245749 L63.255814,14.3587013 Z" id="Fill-16" fill="#2E2E2E"></path>
                        <path d="M74.8064314,5.94366849 L78.04959,5.94282761 L77.6540299,7.59768033 L74.4104366,7.59768033 L73.9957504,9.32358744 L76.9641903,9.32358744 L74.7290581,12.8662168 C74.3461037,13.3976532 73.9688002,13.3770516 73.9688002,13.3770516 L73.0181517,13.3770516 L72.6004228,15.1138902 L74.4765082,15.1138902 C75.4810571,15.1286056 76.0191928,14.6358497 76.0191928,14.6358497 C76.4847367,14.2852025 76.8672564,13.5910557 76.8672564,13.5910557 L78.1812985,11.4888546 L78.5564287,13.5633067 C78.6472771,14.2284431 78.8863519,14.5324214 78.8863519,14.5324214 C79.269741,15.1054814 80.2812448,15.1151515 80.2812448,15.1151515 L81.653969,15.1151515 L82.0738713,13.3694837 L81.4370629,13.3694837 C81.1088784,13.332485 80.9902103,12.6988816 80.9902103,12.6988816 L80.5385763,10.2157616 L78.9863287,10.2157616 L79.5414169,9.32611009 L83.0475579,9.32611009 L83.463548,7.60062341 L80.2234322,7.60062341 L80.6224698,5.94366849 L83.8630203,5.94366849 L84.2811839,4.21818182 L75.2224216,4.21818182 L74.8064314,5.94366849 Z" id="Fill-18" fill="#2E2E2E"></path>
                        <path d="M83.7269855,2.357641 C83.7269855,2.357641 84.5914142,1.49657845 85,0 L82.2950534,0 C82.2950534,0 82.091806,0.63127629 81.8304282,1.00902456 C81.8304282,1.00902456 81.4829003,1.55974847 80.5519771,1.57501103 L80.1479915,3.33868421 L81.646,3.33868421 C81.646,3.33868421 82.7621878,3.40100631 83.7269855,2.357641" id="Fill-20" fill="#2E2E2E"></path>
                        <path d="M77.9982102,3.33869708 L79.5490391,3.33869708 L79.9682875,1.5750171 C79.0105629,1.55975448 78.9112786,1.00902845 78.9112786,1.00902845 C78.8219661,0.630854762 78.9112786,0 78.9112786,0 L76.1066065,0 C75.8165577,1.49616025 76.3064757,2.35765009 76.3064757,2.35765009 C76.8124353,3.40059546 77.9982102,3.33869708 77.9982102,3.33869708" id="Fill-22" fill="#2E2E2E"></path>
                        <path d="M4.00779075,25.0339495 C2.67485984,25.0339495 1.58541212,23.7796573 1.98477608,22.0627163 C2.3978816,20.2866591 4.06232755,19.0807736 5.39397019,19.0807736 C6.67622912,19.0807736 7.24521541,19.4290453 7.48912803,19.5528467 L8.26638478,18.3598126 C7.95505265,18.1494788 7.24779195,17.7515152 5.51678535,17.7515152 C3.04974666,17.7515152 0.718405829,19.5275724 0.127948353,22.0627163 C-0.462509123,24.5995737 1.04605605,26.3636364 3.51137705,26.3636364 C5.08177922,26.3636364 5.96080937,26.0654849 6.62040405,25.7553389 L6.37090892,24.5755845 C5.89253101,24.7486494 5.22950095,25.0339495 4.00779075,25.0339495" id="Fill-24" fill="#2E2E2E"></path>
                        <path d="M12.1268434,20.5936061 C11.1830672,20.5936061 10.3680261,21.1046688 10.1130884,21.2528898 L10.9939743,17.4 L9.33814518,17.5747809 L7.36786469,26.1878788 L8.98232974,26.1878788 L9.88474184,22.2480269 C10.1249067,22.1105155 10.5845544,21.8136451 11.0627737,21.8136451 C11.6866115,21.8136451 11.8524898,22.1105155 11.7262872,22.6579908 L10.920532,26.1878788 L12.5227566,26.1878788 L13.4196817,22.2728732 C13.652249,21.2528898 13.1799389,20.5936061 12.1268434,20.5936061" id="Fill-26" fill="#2E2E2E"></path>
                        <path d="M15.4725758,18.723433 C15.3781298,19.1330254 15.6659075,19.5090909 16.0743662,19.5090909 C16.4981622,19.5090909 16.9590909,19.1330254 17.0527296,18.723433 C17.1504045,18.3138407 16.8634341,17.9272727 16.4432706,17.9272727 C16.0323902,17.9272727 15.5690399,18.3138407 15.4725758,18.723433" id="Fill-28" fill="#2E2E2E"></path>
                        <polygon id="Fill-30" fill="#2E2E2E" points="15.0973665 20.5636364 13.8372093 25.8363636 15.4535901 25.8363636 16.7124736 20.5636364"></polygon>
                        <path d="M21.2873693,20.3878788 C20.3062547,20.3878788 19.5031786,20.8856231 19.2477504,21.0299814 L19.3086472,20.50929 L17.7879196,20.50929 L16.5327696,25.8363636 L18.1414592,25.8363636 L19.0422239,21.9991851 C19.2832736,21.8652572 19.7087051,21.5761233 20.2242132,21.5761233 C20.8369869,21.5761233 21.0141796,21.8652572 20.8877342,22.3984652 L20.0804292,25.8363636 L21.6886959,25.8363636 L22.5848087,22.0233838 C22.8174006,21.0299814 22.3420675,20.3878788 21.2873693,20.3878788" id="Fill-32" fill="#2E2E2E"></path>
                        <path d="M26.1825495,24.5093452 C25.9178101,24.6559986 25.4585081,24.9505697 25.0336643,24.9505697 C24.7403498,24.9505697 24.2188551,24.8755573 24.3566877,24.2902079 C24.4974619,23.6787307 25.1740183,23.4945711 25.6618953,23.4469509 L26.4426666,23.3850024 L26.1825495,24.5093452 Z M26.6002496,20.3878788 C25.4429599,20.3878788 24.5373829,20.7675763 24.1314491,20.9386719 L24.2835692,21.758751 C24.6159643,21.6352756 25.1521668,21.4283594 25.8858733,21.4283594 C26.7145498,21.4283594 26.8032165,21.8324991 26.6935387,22.3082799 L26.6300853,22.5775659 L25.4879236,22.6146506 C24.1083369,22.6753348 23.0972843,23.4583291 22.8661625,24.4608822 C22.6585732,25.3538666 23.1998183,26.0121212 24.2743243,26.0121212 C25.078628,26.0121212 25.6576931,25.6223097 25.9749602,25.4137079 C25.9451245,25.5380261 25.9463851,25.7449423 25.9724389,25.8911743 L27.6423986,25.8911743 C27.6062595,25.7314569 27.5860889,25.3416454 27.6566861,25.0483386 L28.3458491,22.0638575 C28.5887371,21.0136843 27.8815045,20.3878788 26.6002496,20.3878788 L26.6002496,20.3878788 Z" id="Fill-34" fill="#2E2E2E"></path>
                        <path d="M38.1313059,17.9272727 L36.9320937,23.1386849 C36.7182511,24.0701189 35.9636621,25.0622801 34.6975447,25.0622801 C33.4191473,25.0622801 33.0498984,24.3664843 33.3331868,23.1386849 L34.5307052,17.9272727 L32.7852417,17.9272727 L31.5398734,23.3499468 C31.1346312,25.1123158 32.0755385,26.3636364 34.3113578,26.3636364 C36.534897,26.3636364 38.0775276,25.0490228 38.4679491,23.3499468 L39.7145877,17.9272727 L38.1313059,17.9272727 Z" id="Fill-36" fill="#2E2E2E"></path>
                        <path d="M43.7510413,20.3878788 C42.7677611,20.3878788 41.9659121,20.8856231 41.7104707,21.0299814 L41.7709477,20.50929 L40.2509869,20.50929 L38.9957717,25.8363636 L40.6049678,25.8363636 L41.5078938,21.9991851 C41.7472644,21.8652572 42.1710264,21.5761233 42.6852925,21.5761233 C43.2993668,21.5761233 43.4778374,21.8652572 43.3505397,22.3984652 L42.5427697,25.8363636 L44.1502742,25.8363636 L45.0468565,22.0233838 C45.281575,21.0299814 44.807063,20.3878788 43.7510413,20.3878788" id="Fill-38" fill="#2E2E2E"></path>
                        <path d="M47.2809215,18.723433 C47.1844144,19.1330254 47.471513,19.5090909 47.8813654,19.5090909 C48.3045431,19.5090909 48.7664851,19.1330254 48.8609733,18.723433 C48.9566728,18.3138407 48.6707856,17.9272727 48.2500307,17.9272727 C47.840582,17.9272727 47.3754096,18.3138407 47.2809215,18.723433" id="Fill-40" fill="#2E2E2E"></path>
                        <polygon id="Fill-42" fill="#2E2E2E" points="45.4651163 25.8363636 47.0801421 25.8363636 48.3403805 20.5636364 46.7253548 20.5636364"></polygon>
                        <path d="M53.1456205,23.2012643 C52.9255265,24.1182695 52.1659866,24.9501483 51.3391239,24.9501483 C50.3521536,24.9501483 50.122997,24.1182695 50.3413647,23.2012643 C50.5605955,22.2720379 51.1816057,21.451116 52.1703022,21.451116 C52.9971649,21.451116 53.3657144,22.2720379 53.1456205,23.2012643 M52.4231945,20.3878788 C50.7457334,20.3878788 49.0087175,21.4776653 48.6000332,23.2012643 C48.1900543,24.9265489 49.4079075,26.0121212 51.0853685,26.0121212 C52.7649874,26.0121212 54.5007086,24.9265489 54.9093929,23.2012643 C55.3198033,21.4776653 54.1006555,20.3878788 52.4231945,20.3878788" id="Fill-44" fill="#2E2E2E"></path>
                        <path d="M59.7444788,20.3878788 C58.7627475,20.3878788 57.9570507,20.8856231 57.7031547,21.0299814 L57.7623971,20.50929 L56.241983,20.50929 L54.9894292,25.8363636 L56.5957448,25.8363636 L57.4991915,21.9991851 C57.7391233,21.8652572 58.1635528,21.5761233 58.6789618,21.5761233 C59.2938133,21.5761233 59.4711174,21.8652572 59.3454389,22.3984652 L58.5359337,25.8363636 L60.1430956,25.8363636 L61.0410413,22.0233838 C61.2746256,21.0299814 60.7994169,20.3878788 59.7444788,20.3878788" id="Fill-46" fill="#2E2E2E"></path>
                        <path d="M71.4683033,24.5093452 C71.2018991,24.6559986 70.7451463,24.9505697 70.3182273,24.9505697 C70.0249306,24.9505697 69.5051484,24.8755573 69.6412918,24.2902079 C69.783318,23.6787307 70.4598333,23.4945711 70.9476807,23.4469509 L71.7284045,23.3850024 L71.4683033,24.5093452 Z M72.9406695,25.0483386 L73.6310513,22.0638575 C73.8747648,21.0136843 73.1658945,20.3878788 71.885978,20.3878788 C70.7262375,20.3878788 69.8228164,20.7675763 69.4177476,20.9386719 L69.5685979,21.758751 C69.9022334,21.6352756 70.4375629,21.4283594 71.1695441,21.4283594 C71.9990106,21.4283594 72.0889325,21.8324991 71.9780008,22.3082799 L71.9153917,22.5775659 L70.7737196,22.6146506 C69.3937965,22.6753348 68.3832255,23.4583291 68.150437,24.4608822 C67.9462218,25.3538666 68.4857533,26.0121212 69.5589334,26.0121212 C70.3631883,26.0121212 70.9430585,25.6223097 71.259466,25.4137079 C71.2300523,25.5380261 71.2321532,25.7449423 71.259466,25.8911743 L72.9284838,25.8911743 C72.8927672,25.7314569 72.8738584,25.3416454 72.9406695,25.0483386 L72.9406695,25.0483386 Z" id="Fill-48" fill="#2E2E2E"></path>
                        <path d="M76.5463426,24.2489075 L76.0108292,20.5636364 L74.3314592,20.5636364 L75.3258005,26.1210423 L74.9556536,26.7054698 C74.4604108,27.3860907 74.2016507,27.8585065 73.5804552,27.8585065 C73.1816048,27.8585065 72.9348402,27.7460673 72.6846484,27.6473088 L72.0613108,28.616082 C72.3132163,28.7640058 72.6203868,29 73.612586,29 C74.6334887,29 75.2538275,28.3052708 75.8111898,27.4117422 L80.1479915,20.5636364 L78.7440896,20.5636364 L76.5463426,24.2489075 Z" id="Fill-50" fill="#2E2E2E"></path>
                        <path d="M67.2754637,20.3048862 C67.0715034,21.1961711 66.2023449,21.5786382 65.4465917,21.5786382 L64.8152458,21.5786382 L65.3890428,19.0793694 L66.0182729,19.0793694 C66.7740261,19.0793694 67.4705378,19.4503113 67.2754637,20.3048862 M69.1276092,20.3048862 C69.4272023,18.991863 68.5753931,17.9272727 66.559487,17.9272727 L63.887692,17.9272727 L61.9978858,26.1878788 L63.7620153,26.1878788 L64.5478124,22.758054 L65.4165478,22.758054 C67.130745,22.758054 68.7878165,21.7907879 69.1276092,20.3048862" id="Fill-52" fill="#2E2E2E"></path>
                    </g>
                </g>
            </g>
        </g>
    </g>
</svg>